<?xml version="1.0" encoding="UTF-8" standalone="no"?>
<!DOCTYPE svg PUBLIC "-//W3C//DTD SVG 1.1//EN" "http://www.w3.org/Graphics/SVG/1.1/DTD/svg11.dtd">
<svg width="100%" height="100%" viewBox="0 0 401 401" version="1.1" xmlns="http://www.w3.org/2000/svg" xmlns:xlink="http://www.w3.org/1999/xlink" xml:space="preserve" xmlns:serif="http://www.serif.com/" style="fill-rule:evenodd;clip-rule:evenodd;stroke-linejoin:round;stroke-miterlimit:2;">
    <g transform="matrix(1,0,0,1,-288.641,-653.07)">
        <rect x="288.641" y="653.07" width="401" height="401" style="fill:rgb(228,230,231);"/>
        <g id="Ebene1" transform="matrix(1.27104,0,0,1.27104,234.177,591.883)">
            <g transform="matrix(1,0,0,1,-288.991,-653.07)">
                <path d="M489.571,908.08C405.056,908.08 336.051,956.265 332.191,1016.7L646.981,1016.7C643.111,956.26 574.081,908.08 489.571,908.08Z" style="fill:rgb(174,180,183);fill-rule:nonzero;"/>
            </g>
            <g transform="matrix(1,0,0,1,-289.556,-653.07)">
                <path d="M568.561,818.86C568.561,865.606 533.455,903.501 490.151,903.501C446.847,903.501 411.741,865.606 411.741,818.86C411.741,772.114 446.847,734.219 490.151,734.219C533.461,734.219 568.561,772.119 568.561,818.859L568.561,818.86Z" style="fill:rgb(174,180,183);fill-rule:nonzero;"/>
            </g>
        </g>
    </g>
</svg>
